# xmcd CD database file
#
# Track frame offsets:
#	182
#	9587
#	25665
#	37432
#	54835
#	64637
#	75010
#	90095
#	101850
#	117712
#	128667
#	143610
#	162872
#	170940
#	183755
#	196362
#	207070
#	220275
#	231390
#	241050
#	254095
#	273390
#
# Disc length: 3816 seconds
#
# Revision: 0
# Processed by: cddbd v1.5.2PL0 Copyright (c) Steve Scherf et al.
# Submitted via: CDex 1.70beta2
#
DISCID=2e0ee616
DTITLE=Various Artist - Hity 1990 - 1995
DYEAR=1900
DGENRE=Country
TTITLE0=Ruty šuty
TTITLE1=Už se mi Tvůj šátek v dáli ztrácí
TTITLE2=Mexická svatba
TTITLE3=Hambaté lidové písně
TTITLE4=Den přeslavný
TTITLE5=Rodeo
TTITLE6=Bedna voc whisky
TTITLE7=Lákání
TTITLE8=Zlatý kruh
TTITLE9=On je cvok
TTITLE10=Communio
TTITLE11=Divokej horskej tymián
TTITLE12=Jánošík
TTITLE13=Nechoď do kláštera
TTITLE14=Hospoda "kdesi v Anglii"
TTITLE15=Bandita Romero
TTITLE16=Černej Bobby
TTITLE17=Carra carra wirra canna
TTITLE18=Tico tico no fuba
TTITLE19=Mám tady stát
TTITLE20=Ossian
TTITLE21=S.T.B.A.K.G.B.J.B.N.T.B.
EXTD=
EXTT0=
EXTT1=
EXTT2=
EXTT3=
EXTT4=
EXTT5=
EXTT6=
EXTT7=
EXTT8=
EXTT9=
EXTT10=
EXTT11=
EXTT12=
EXTT13=
EXTT14=
EXTT15=
EXTT16=
EXTT17=
EXTT18=
EXTT19=
EXTT20=
EXTT21=
PLAYORDER=
